Coordinates
version=1
nRows=27
nColumns=12
inDegrees=yes

Units are S.I. units (second, meters, Newtons, ...)
Angles are in degrees

endheader
time	SC_y	SC_z	SC_x	AC_y	AC_z	AC_x	GH_y	GH_z	GH_yy	EL_x	PS_y
       0.0              -45.87          3.586          57.86          51.92         -5.157          4.243          3.277          38.82          139.7           19.6          42.95
   0.01457              -45.86          3.585          57.85          51.93         -5.158          4.244          3.252          38.82          139.7          19.62          42.96
   0.02914              -45.86          3.585          57.85          51.93         -5.159          4.245          3.226          38.82          139.6          19.63          42.98
   0.04371              -45.86          3.585          57.84          51.93         -5.161          4.247          3.197          38.82          139.6          19.65           43.0
   0.05828              -45.85          3.585          57.83          51.93         -5.162          4.248          3.167          38.82          139.6          19.67          43.02
   0.07285              -45.84          3.585          57.82          51.93         -5.164           4.25          3.135          38.82          139.6          19.69          43.03
   0.08742              -45.84          3.585          57.81          51.94         -5.165          4.251          3.101          38.82          139.5          19.71          43.06
     0.102              -45.83          3.585           57.8          51.94         -5.167          4.253          3.064          38.82          139.5          19.73          43.08
    0.1166              -45.82          3.585          57.79          51.94         -5.169          4.255          3.025          38.82          139.5          19.75           43.1
    0.1311              -45.82          3.585          57.78          51.95         -5.171          4.257          2.982          38.82          139.4          19.78          43.13
    0.1457              -45.81          3.584          57.77          51.95         -5.173          4.259          2.937          38.81          139.4           19.8          43.15
    0.1603               -45.8          3.584          57.75          51.95         -5.176          4.261          2.888          38.81          139.3          19.83          43.18
    0.1748              -45.79          3.584          57.74          51.96         -5.178          4.263          2.836          38.81          139.3          19.86          43.21
    0.1894              -45.78          3.584          57.72          51.96         -5.181          4.266          2.779          38.81          139.2           19.9          43.25
     0.204              -45.77          3.584          57.71          51.97         -5.184          4.269          2.718          38.81          139.2          19.93          43.29
    0.2185              -45.76          3.583          57.69          51.97         -5.187          4.272          2.651          38.81          139.1          19.97          43.33
    0.2331              -45.75          3.583          57.67          51.98         -5.191          4.275          2.579          38.81          139.0          20.01          43.37
    0.2477              -45.73          3.583          57.65          51.98         -5.195          4.279            2.5           38.8          139.0          20.06          43.42
    0.2623              -45.72          3.583          57.62          51.99         -5.199          4.283          2.414           38.8          138.9          20.11          43.47
    0.2768               -45.7          3.582           57.6           52.0         -5.203          4.287          2.319           38.8          138.8          20.16          43.53
    0.2914              -45.68          3.582          57.57          52.01         -5.208          4.292          2.216           38.8          138.7          20.22          43.59
     0.306              -45.66          3.582          57.54          52.02         -5.214          4.297          2.102          38.79          138.6          20.29          43.66
    0.3205              -45.64          3.581           57.5          52.02          -5.22          4.302          1.976          38.79          138.5          20.36          43.73
    0.3351              -45.62          3.581          57.46          52.04         -5.227          4.309          1.836          38.79          138.3          20.45          43.82
    0.3497              -45.59           3.58          57.42          52.05         -5.234          4.316          1.681          38.78          138.2          20.54          43.91
    0.3642              -45.56           3.58          57.37          52.06         -5.243          4.324          1.508          38.78          138.0          20.64          44.01
    0.3788              -45.52          3.579          57.32          52.08         -5.252          4.333          1.315          38.77          137.8          20.75          44.13
